<svg xmlns="http://www.w3.org/2000/svg" width="160" height="136.853" viewBox="0 0 160 136.853"><g transform="translate(0.01 0)"><path d="M17711.48,1741.962a4.982,4.982,0,0,1-2.018-1.289,5.623,5.623,0,0,1-1.205-2.213,11.175,11.175,0,0,1-.4-3.181,9.99,9.99,0,0,1,.428-3.029,6.218,6.218,0,0,1,1.275-2.293,5.564,5.564,0,0,1,2.1-1.45,7.675,7.675,0,0,1,2.9-.5,8.475,8.475,0,0,1,2.789.419,4.908,4.908,0,0,1,2.016,1.285,5.61,5.61,0,0,1,1.227,2.195,10.5,10.5,0,0,1,.412,3.127h0a10.331,10.331,0,0,1-.434,3.1,6.144,6.144,0,0,1-1.275,2.311,5.5,5.5,0,0,1-2.1,1.454,7.8,7.8,0,0,1-2.891.5A8.468,8.468,0,0,1,17711.48,1741.962Zm1.248-11.252a3.242,3.242,0,0,0-1.123,1.044,4.4,4.4,0,0,0-.607,1.53,9.149,9.149,0,0,0-.178,1.856,11.384,11.384,0,0,0,.168,2.043,4.45,4.45,0,0,0,.586,1.552,2.681,2.681,0,0,0,1.088.982,3.949,3.949,0,0,0,1.73.335,3.53,3.53,0,0,0,1.74-.384,3.136,3.136,0,0,0,1.129-1.048,4.557,4.557,0,0,0,.607-1.552,9.5,9.5,0,0,0,.178-1.883v0a10.552,10.552,0,0,0-.174-1.99,4.207,4.207,0,0,0-.584-1.535,2.785,2.785,0,0,0-1.1-.99,3.776,3.776,0,0,0-1.719-.348A3.512,3.512,0,0,0,17712.729,1730.71Zm-55.6,11.354a4.631,4.631,0,0,1-1.762-.995,4.331,4.331,0,0,1-1.1-1.66,6.469,6.469,0,0,1-.379-2.324v-8.45l.063-.192.232-.138a2.541,2.541,0,0,1,.438-.085,5.687,5.687,0,0,1,.688-.036,5.534,5.534,0,0,1,.674.036,2.336,2.336,0,0,1,.428.085l.232.138.07.192v8.2a4.45,4.45,0,0,0,.205,1.437,2.742,2.742,0,0,0,.586,1,2.357,2.357,0,0,0,.914.593,3.319,3.319,0,0,0,1.182.2,3.283,3.283,0,0,0,1.191-.2,2.367,2.367,0,0,0,.9-.6,2.78,2.78,0,0,0,.563-.968,4.052,4.052,0,0,0,.2-1.3v-8.365l.068-.187.223-.143a2.431,2.431,0,0,1,.438-.085,5.794,5.794,0,0,1,.678-.031,5.591,5.591,0,0,1,.674.031,2.817,2.817,0,0,1,.424.085l.223.143.066.187v8.334l0,0a6.546,6.546,0,0,1-.375,2.289,4.512,4.512,0,0,1-1.105,1.709,4.785,4.785,0,0,1-1.8,1.062,7.736,7.736,0,0,1-2.467.366A7.944,7.944,0,0,1,17657.127,1742.064Zm19.475.205a7.611,7.611,0,0,1-1.09-.286,4.791,4.791,0,0,1-.789-.348,2.332,2.332,0,0,1-.459-.321.847.847,0,0,1-.2-.406,3.607,3.607,0,0,1-.062-.754,4.9,4.9,0,0,1,.027-.558,1.654,1.654,0,0,1,.066-.366l.129-.2.188-.058a.858.858,0,0,1,.424.178c.184.116.42.245.705.393a6.167,6.167,0,0,0,1.027.388,4.764,4.764,0,0,0,1.383.178,3.159,3.159,0,0,0,.924-.125,2.026,2.026,0,0,0,.686-.344,1.458,1.458,0,0,0,.438-.558,1.767,1.767,0,0,0,.152-.745,1.279,1.279,0,0,0-.26-.807,2.517,2.517,0,0,0-.674-.6,6.917,6.917,0,0,0-.932-.5c-.357-.152-.719-.312-1.088-.486a9.351,9.351,0,0,1-1.084-.589,4.228,4.228,0,0,1-.941-.781,3.589,3.589,0,0,1-.67-1.075,3.883,3.883,0,0,1-.258-1.495,3.957,3.957,0,0,1,.369-1.758,3.552,3.552,0,0,1,1-1.254,4.321,4.321,0,0,1,1.48-.75,6.677,6.677,0,0,1,2.8-.17,6.836,6.836,0,0,1,.924.205,5.175,5.175,0,0,1,.764.29,1.877,1.877,0,0,1,.441.268l.143.183.066.2.037.312c.008.125.008.281.008.464,0,.205,0,.384-.014.531a2.8,2.8,0,0,1-.053.353l-.107.205-.187.062a.92.92,0,0,1-.379-.147c-.17-.1-.385-.21-.633-.33a5.582,5.582,0,0,0-.871-.321,3.791,3.791,0,0,0-1.084-.147,2.53,2.53,0,0,0-.8.116,1.664,1.664,0,0,0-.58.308,1.25,1.25,0,0,0-.34.482,1.552,1.552,0,0,0-.111.589,1.339,1.339,0,0,0,.25.8,2.508,2.508,0,0,0,.678.6,7.2,7.2,0,0,0,.959.491c.357.156.725.317,1.094.491a10,10,0,0,1,1.1.584,4.615,4.615,0,0,1,.955.781,3.726,3.726,0,0,1,.678,1.075,3.787,3.787,0,0,1,.254,1.449,4.343,4.343,0,0,1-.406,1.919,4,4,0,0,1-1.105,1.379,4.709,4.709,0,0,1-1.633.83,6.868,6.868,0,0,1-1.994.281A7,7,0,0,1,17676.6,1742.269Zm-37.994-.344a5.09,5.09,0,0,1-1.953-1.316,5.866,5.866,0,0,1-1.236-2.186,9.825,9.825,0,0,1-.428-3.047,9.6,9.6,0,0,1,.473-3.145,6.548,6.548,0,0,1,1.324-2.307,5.46,5.46,0,0,1,2.029-1.414,6.824,6.824,0,0,1,2.615-.486,6.068,6.068,0,0,1,1.115.1,6.582,6.582,0,0,1,.994.25,5.408,5.408,0,0,1,.822.361,2.81,2.81,0,0,1,.508.348l.2.241.084.25.049.352c.014.134.02.3.02.5s-.01.4-.023.549a1.2,1.2,0,0,1-.076.361l-.129.205-.174.067a.757.757,0,0,1-.406-.187,6.123,6.123,0,0,0-.637-.419,5.416,5.416,0,0,0-.934-.419,3.987,3.987,0,0,0-1.3-.187,3.071,3.071,0,0,0-2.578,1.3,4.449,4.449,0,0,0-.691,1.521,7.719,7.719,0,0,0-.236,2.008,7.808,7.808,0,0,0,.25,2.119,4.082,4.082,0,0,0,.723,1.477,2.869,2.869,0,0,0,1.125.866,3.686,3.686,0,0,0,1.484.286,4.177,4.177,0,0,0,1.3-.178,5.319,5.319,0,0,0,.938-.388c.264-.147.473-.272.646-.388a.8.8,0,0,1,.393-.169l.17.04.107.174a1.685,1.685,0,0,1,.066.357c.014.155.018.358.018.614a4.407,4.407,0,0,1-.018.457l-.045.321-.084.228-.174.223a2.1,2.1,0,0,1-.455.317,5.847,5.847,0,0,1-.826.37,7.678,7.678,0,0,1-1.119.294,7.732,7.732,0,0,1-3.936-.321Zm117.92.245a2.257,2.257,0,0,1-.434-.085l-.236-.143-.066-.192v-13.121l.066-.187.236-.143a2.515,2.515,0,0,1,.438-.085,5.57,5.57,0,0,1,.674-.031,5.8,5.8,0,0,1,.688.031,2.981,2.981,0,0,1,.432.085l.229.143.07.187v13.121l-.066.192-.232.143a2.419,2.419,0,0,1-.428.085,7.514,7.514,0,0,1-1.369,0Zm-12.346,0a2.089,2.089,0,0,1-.41-.085l-.215-.143-.062-.192v-11.305h-.021l-4.023,11.3-.145.228-.262.147a1.657,1.657,0,0,1-.424.067c-.17.013-.379.018-.625.018a6.145,6.145,0,0,1-.621-.027,1.877,1.877,0,0,1-.424-.085l-.262-.147-.131-.2-3.885-11.3h-.023v11.305l-.057.192-.219.143a2.335,2.335,0,0,1-.416.085,5.087,5.087,0,0,1-.646.031,5.252,5.252,0,0,1-.646-.031,2.153,2.153,0,0,1-.41-.085l-.215-.143-.062-.192v-12.38a1.116,1.116,0,0,1,.295-.834,1.04,1.04,0,0,1,.771-.294h1.848a3.888,3.888,0,0,1,.848.085,1.654,1.654,0,0,1,.611.268,1.519,1.519,0,0,1,.428.491,3.486,3.486,0,0,1,.3.758l3.008,8.276h.043l3.115-8.254a4.4,4.4,0,0,1,.3-.763,1.674,1.674,0,0,1,.389-.5,1.178,1.178,0,0,1,.521-.277,2.715,2.715,0,0,1,.7-.08h1.9a1.519,1.519,0,0,1,.5.076l.344.223.205.352a1.547,1.547,0,0,1,.072.477v12.38h0l-.059.192-.219.143a2.121,2.121,0,0,1-.41.085,5.278,5.278,0,0,1-.656.031A5.142,5.142,0,0,1,17744.182,1742.171Zm-49.32,0a2.322,2.322,0,0,1-.434-.085l-.23-.143-.072-.192v-11.2h-3.475l-.184-.062-.129-.2a1.355,1.355,0,0,1-.08-.353,4.166,4.166,0,0,1-.027-.531,4.423,4.423,0,0,1,.027-.549,1.35,1.35,0,0,1,.08-.357l.129-.2.184-.058h9.787l.18.058.133.2a1.247,1.247,0,0,1,.08.357,4.839,4.839,0,0,1,.027.549h0a4.606,4.606,0,0,1-.025.531,1.383,1.383,0,0,1-.082.353l-.133.2-.178.063h-3.48v11.2l-.072.192-.232.143a2.364,2.364,0,0,1-.432.085,7.471,7.471,0,0,1-1.365,0Zm73.314-.031a.867.867,0,0,1-.66-.245,1.008,1.008,0,0,1-.232-.718v-.473l.027-.393.088-.361a2.535,2.535,0,0,1,.191-.4c.082-.143.184-.312.309-.518l5.385-8.544h-5.344l-.219-.058-.152-.192a1.086,1.086,0,0,1-.09-.344c-.014-.143-.021-.312-.021-.513,0-.219.008-.4.021-.544a1.186,1.186,0,0,1,.09-.353l.152-.187.219-.053h7.672a.851.851,0,0,1,.652.228.9.9,0,0,1,.209.634v.526a4.1,4.1,0,0,1-.025.5l-.1.406-.182.406c-.08.143-.184.308-.3.5l-5.3,8.423h5.809c.133,0,.236.089.307.263a2.535,2.535,0,0,1,.107.888h0a4.569,4.569,0,0,1-.021.526l-.082.348-.133.187-.178.053Zm-122.912-2.1v0Zm37.814-2.06v0Z" transform="translate(-17635 -1626.946)" fill="#252422"/><path d="M722.765,497.456l-.295.84-.44,1.413-1.093,3.21-.1.176-.172.137-.3.071a4.526,4.526,0,0,1-.475.021,3.547,3.547,0,0,1-.494-.029l-.3-.112-.1-.259.093-.386,2.762-7.655-1.085-3.1-2.249,6.516-.442,1.413-1.1,3.21-.091.176-.174.137-.295.071a4.078,4.078,0,0,1-.475.021,3.3,3.3,0,0,1-.5-.029l-.3-.112-.1-.259.091-.382,4.48-12.409.122-.208.22-.131.347-.058c.174-.012.344-.019.515-.019s.367.006.552.019l.363.058.228.137.129.212,4.484,12.4.089.386-.1.257-.307.11a4.847,4.847,0,0,1-.519.021c-.174,0-.347,0-.517-.017l-.3-.054-.172-.118-.1-.168-1.145-3.256-.465-1.413-.293-.845Z" transform="translate(-566.69 -388.101)" fill="#252422" fill-rule="evenodd"/><path d="M206.319,613.788a6.7,6.7,0,0,0-.081-1.031,3.07,3.07,0,0,0-.28-.884,1.62,1.62,0,0,0-.533-.614,1.409,1.409,0,0,0-.83-.232,1.65,1.65,0,0,0-.49.075,1.828,1.828,0,0,0-.488.232,3.225,3.225,0,0,0-.521.415,6.069,6.069,0,0,0-.577.637v2.76a5.555,5.555,0,0,0,1,.982,1.68,1.68,0,0,0,.994.338,1.453,1.453,0,0,0,.828-.232,1.738,1.738,0,0,0,.556-.616,3.1,3.1,0,0,0,.315-.865,4.875,4.875,0,0,0,.1-.963Zm1.32-.145a6.3,6.3,0,0,1-.2,1.637,3.642,3.642,0,0,1-.579,1.228,2.58,2.58,0,0,1-.944.78,2.917,2.917,0,0,1-1.289.272,2.387,2.387,0,0,1-.573-.062,2.122,2.122,0,0,1-.51-.191,3.075,3.075,0,0,1-.5-.332c-.164-.135-.34-.293-.527-.471v3.472l-.027.108-.1.077-.191.044-.315.017-.309-.017-.2-.044-.1-.077-.027-.108v-9.7l.023-.11.093-.073.176-.042.264-.012.266.012.174.042.1.073.029.11v.936a6.946,6.946,0,0,1,.606-.562,3.8,3.8,0,0,1,.593-.4,2.777,2.777,0,0,1,.608-.239,2.61,2.61,0,0,1,.66-.081,2.641,2.641,0,0,1,1.289.293,2.438,2.438,0,0,1,.867.8,3.6,3.6,0,0,1,.488,1.185,6.244,6.244,0,0,1,.156,1.432Z" transform="translate(-159.498 -483.367)" fill="#252422"/><path d="M245.309,610.733l-.006.286-.031.183-.058.1-.1.035-.151-.035-.2-.07-.251-.064-.3-.031-.38.077-.386.253a3.293,3.293,0,0,0-.432.471c-.147.2-.313.434-.492.718v4.567l-.031.1-.1.075-.2.046-.317.017-.307-.017-.2-.046-.1-.075-.029-.1v-6.945l.023-.1.091-.077.181-.046.284-.012.282.012.172.046.087.077.029.1v1.013a5.4,5.4,0,0,1,.535-.681,2.99,2.99,0,0,1,.475-.413,1.483,1.483,0,0,1,.446-.208,1.679,1.679,0,0,1,.442-.058l.226.012.266.044.253.068.158.077.062.075.029.085.017.16,0,.28Z" transform="translate(-191.198 -483.367)" fill="#252422"/><path d="M269.848,613.749a5.289,5.289,0,0,0-.106-1.064,2.6,2.6,0,0,0-.347-.88,1.736,1.736,0,0,0-.656-.6,2.182,2.182,0,0,0-1.027-.218,2.208,2.208,0,0,0-.977.2,1.779,1.779,0,0,0-.672.567,2.58,2.58,0,0,0-.394.867,4.335,4.335,0,0,0-.131,1.1,5.518,5.518,0,0,0,.1,1.073,2.539,2.539,0,0,0,.353.878,1.729,1.729,0,0,0,.656.593,2.182,2.182,0,0,0,1.027.218,2.22,2.22,0,0,0,.973-.2,1.753,1.753,0,0,0,.676-.562,2.362,2.362,0,0,0,.388-.865,4.563,4.563,0,0,0,.127-1.1Zm1.32-.085a5.186,5.186,0,0,1-.226,1.563,3.468,3.468,0,0,1-.666,1.23,3.013,3.013,0,0,1-1.112.809,3.891,3.891,0,0,1-1.546.286,4.032,4.032,0,0,1-1.492-.253,2.75,2.75,0,0,1-1.062-.741,3.163,3.163,0,0,1-.631-1.181,5.458,5.458,0,0,1-.212-1.575,5.32,5.32,0,0,1,.22-1.56,3.411,3.411,0,0,1,.664-1.233,2.975,2.975,0,0,1,1.106-.8,3.884,3.884,0,0,1,1.55-.286,4.008,4.008,0,0,1,1.494.255,2.754,2.754,0,0,1,1.062.741,3.229,3.229,0,0,1,.635,1.181,5.282,5.282,0,0,1,.214,1.564Z" transform="translate(-209.401 -483.359)" fill="#252422"/><path d="M307.108,594.767l-.017.234-.033.145-.05.071-.077.021-.135-.037-.2-.077-.274-.077-.367-.035a1.137,1.137,0,0,0-.486.094l-.326.288a1.565,1.565,0,0,0-.176.508,4.429,4.429,0,0,0-.052.761v.755h1.548l.106.027.077.093.052.166.023.245a.861.861,0,0,1-.071.4l-.187.125h-1.548v6.086l-.031.1-.1.075-.2.046-.307.017-.311-.017-.2-.046-.1-.075-.031-.1v-6.086h-.979l-.185-.125a.976.976,0,0,1-.062-.4l.017-.245.046-.166.077-.093.108-.027h.979V596.7a5.059,5.059,0,0,1,.137-1.245,2.169,2.169,0,0,1,.413-.853,1.649,1.649,0,0,1,.7-.488,2.826,2.826,0,0,1,.992-.158,2.72,2.72,0,0,1,.527.05,2.285,2.285,0,0,1,.394.11l.185.1.077.118.039.178.012.253Z" transform="translate(-239.667 -470.711)" fill="#252422"/><path d="M330.939,613.069a2.312,2.312,0,0,0-.446-1.573,1.709,1.709,0,0,0-1.394-.571,1.782,1.782,0,0,0-1.432.649,2.166,2.166,0,0,0-.371.683,2.954,2.954,0,0,0-.149.814h3.791Zm1.28.378a.532.532,0,0,1-.151.43l-.344.127H327.15a4.318,4.318,0,0,0,.118,1.042,1.989,1.989,0,0,0,.386.795,1.729,1.729,0,0,0,.706.51,2.808,2.808,0,0,0,1.062.176,4.349,4.349,0,0,0,.884-.081,4.94,4.94,0,0,0,.67-.181c.191-.066.344-.127.465-.18l.276-.081.1.025.064.083.037.149.012.234-.01.174-.019.133-.039.1-.068.091-.251.139a3.77,3.77,0,0,1-.54.189,7.285,7.285,0,0,1-.768.164,5.545,5.545,0,0,1-.932.073,4.351,4.351,0,0,1-1.5-.239,2.783,2.783,0,0,1-1.083-.71,3.013,3.013,0,0,1-.662-1.183,5.416,5.416,0,0,1-.226-1.652,5.148,5.148,0,0,1,.232-1.606,3.362,3.362,0,0,1,.67-1.212,2.866,2.866,0,0,1,1.052-.764,3.44,3.44,0,0,1,1.382-.266,3.29,3.29,0,0,1,1.39.264,2.635,2.635,0,0,1,.946.706,2.857,2.857,0,0,1,.542,1.04,4.489,4.489,0,0,1,.174,1.278v.23Z" transform="translate(-258.227 -483.367)" fill="#252422"/><path d="M397.956,615.313a2.2,2.2,0,0,1-.2.95,1.924,1.924,0,0,1-.562.7,2.53,2.53,0,0,1-.865.434,3.909,3.909,0,0,1-1.1.145,3.853,3.853,0,0,1-.705-.058,4.04,4.04,0,0,1-.6-.147,3.03,3.03,0,0,1-.452-.185l-.27-.172-.124-.216a1.512,1.512,0,0,1-.037-.378l.017-.247.037-.164.064-.087.1-.027.251.1c.11.07.247.145.409.228a3.651,3.651,0,0,0,.575.226,2.511,2.511,0,0,0,.766.1,2.358,2.358,0,0,0,.585-.068,1.5,1.5,0,0,0,.454-.205l.3-.344a1.1,1.1,0,0,0,.1-.494.807.807,0,0,0-.149-.494,1.5,1.5,0,0,0-.4-.355,3.381,3.381,0,0,0-.556-.274c-.205-.079-.419-.164-.635-.251a5.632,5.632,0,0,1-.641-.3,2.376,2.376,0,0,1-.56-.407,1.829,1.829,0,0,1-.4-.568,1.968,1.968,0,0,1-.151-.795,1.99,1.99,0,0,1,.158-.784,1.835,1.835,0,0,1,.477-.656,2.351,2.351,0,0,1,.789-.452,3.306,3.306,0,0,1,1.106-.17,3.364,3.364,0,0,1,.558.046,4.024,4.024,0,0,1,.5.116,2.571,2.571,0,0,1,.382.152l.239.143.108.108.042.106.021.141.012.208-.012.228-.037.158-.064.087-.087.029-.2-.085-.338-.18a4.138,4.138,0,0,0-.488-.183,2.2,2.2,0,0,0-.647-.085,1.914,1.914,0,0,0-.571.075,1.122,1.122,0,0,0-.407.208l-.239.32a1.022,1.022,0,0,0-.081.4.807.807,0,0,0,.156.5,1.4,1.4,0,0,0,.4.359,3.553,3.553,0,0,0,.562.278c.212.081.427.168.643.253s.438.187.65.293a2.456,2.456,0,0,1,.569.394,1.762,1.762,0,0,1,.4.556,1.826,1.826,0,0,1,.149.77Z" transform="translate(-311.491 -483.351)" fill="#252422"/><path d="M368.176,615.313a2.146,2.146,0,0,1-.2.95,1.929,1.929,0,0,1-.556.7,2.549,2.549,0,0,1-.865.434,3.93,3.93,0,0,1-1.1.145,3.877,3.877,0,0,1-.708-.058,4.138,4.138,0,0,1-.6-.147,2.873,2.873,0,0,1-.448-.185l-.272-.172-.125-.216a1.621,1.621,0,0,1-.037-.378l.015-.247.037-.164.068-.087.1-.027.253.1a4.644,4.644,0,0,0,.407.228,3.569,3.569,0,0,0,.575.226,2.525,2.525,0,0,0,.764.1,2.288,2.288,0,0,0,.585-.068,1.411,1.411,0,0,0,.454-.205l.3-.344a1.078,1.078,0,0,0,.1-.494.8.8,0,0,0-.151-.494,1.472,1.472,0,0,0-.4-.355,3.36,3.36,0,0,0-.554-.274c-.208-.079-.419-.164-.637-.251a5.978,5.978,0,0,1-.641-.3,2.353,2.353,0,0,1-.556-.407,1.873,1.873,0,0,1-.4-.568,1.934,1.934,0,0,1-.149-.795,1.991,1.991,0,0,1,.158-.784,1.823,1.823,0,0,1,.473-.656,2.321,2.321,0,0,1,.791-.452,3.588,3.588,0,0,1,1.662-.124,3.936,3.936,0,0,1,.5.116,2.514,2.514,0,0,1,.384.152l.239.143.11.108.037.106.025.141.01.208-.01.228-.042.158-.064.087-.083.029-.2-.085-.34-.18a3.918,3.918,0,0,0-.49-.183,2.185,2.185,0,0,0-.643-.085,1.871,1.871,0,0,0-.569.075,1.073,1.073,0,0,0-.407.208l-.239.32a.955.955,0,0,0-.083.4.818.818,0,0,0,.154.5,1.47,1.47,0,0,0,.4.359,3.493,3.493,0,0,0,.564.278c.212.081.423.168.643.253s.434.187.647.293a2.413,2.413,0,0,1,.569.394,1.74,1.74,0,0,1,.548,1.326Z" transform="translate(-287.89 -483.351)" fill="#252422"/><path d="M426.2,606.7l-.029.1-.1.075-.191.046-.315.017-.311-.017-.2-.046-.1-.075-.029-.1V599.75l.029-.1.1-.077.2-.046.311-.017.315.017.191.046.1.077.029.1Zm.149-9.288a.828.828,0,0,1-.172.61.915.915,0,0,1-.625.16.9.9,0,0,1-.614-.158.827.827,0,0,1-.164-.6.855.855,0,0,1,.166-.61.917.917,0,0,1,.627-.162.9.9,0,0,1,.612.158.809.809,0,0,1,.168.6Z" transform="translate(-336.636 -472.843)" fill="#252422"/><path d="M446.258,613.749a5.289,5.289,0,0,0-.106-1.064,2.6,2.6,0,0,0-.347-.88,1.715,1.715,0,0,0-.654-.6,2.187,2.187,0,0,0-1.027-.218,2.224,2.224,0,0,0-.979.2,1.779,1.779,0,0,0-.672.567,2.58,2.58,0,0,0-.394.867,4.335,4.335,0,0,0-.131,1.1,5.518,5.518,0,0,0,.1,1.073,2.539,2.539,0,0,0,.353.878,1.729,1.729,0,0,0,.656.593,2.182,2.182,0,0,0,1.027.218,2.22,2.22,0,0,0,.973-.2,1.768,1.768,0,0,0,.676-.562,2.325,2.325,0,0,0,.386-.865,4.46,4.46,0,0,0,.129-1.1Zm1.32-.085a5.187,5.187,0,0,1-.226,1.563,3.469,3.469,0,0,1-.666,1.23,3.013,3.013,0,0,1-1.112.809,3.9,3.9,0,0,1-1.546.286,4.024,4.024,0,0,1-1.492-.253,2.751,2.751,0,0,1-1.062-.741,3.134,3.134,0,0,1-.631-1.181,5.459,5.459,0,0,1-.212-1.575,5.392,5.392,0,0,1,.218-1.56,3.447,3.447,0,0,1,.666-1.233,2.976,2.976,0,0,1,1.106-.8,3.884,3.884,0,0,1,1.55-.286,4.015,4.015,0,0,1,1.494.255,2.73,2.73,0,0,1,1.06.741,3.169,3.169,0,0,1,.635,1.181,5.283,5.283,0,0,1,.214,1.564Z" transform="translate(-349.205 -483.359)" fill="#252422"/><path d="M489.128,617.22l-.031.1-.1.075-.191.046-.311.017-.315-.017-.191-.046-.1-.075-.031-.1v-4.065a3.98,3.98,0,0,0-.093-.957,1.911,1.911,0,0,0-.272-.625,1.152,1.152,0,0,0-.461-.4,1.459,1.459,0,0,0-.649-.137,1.633,1.633,0,0,0-.957.34,5.117,5.117,0,0,0-1,1v4.851l-.031.1-.1.075-.2.046-.315.017-.307-.017-.2-.046-.1-.075-.029-.1v-6.945l.023-.1.091-.077.181-.046.284-.012.282.012.174.046.085.077.029.1v.921a4.193,4.193,0,0,1,1.17-.961,2.48,2.48,0,0,1,1.172-.307,2.646,2.646,0,0,1,1.172.234,2.126,2.126,0,0,1,.768.629,2.548,2.548,0,0,1,.421.923,5.586,5.586,0,0,1,.127,1.268v4.235Z" transform="translate(-382.902 -483.367)" fill="#252422"/><path d="M525.306,614.042h-1.087a4.029,4.029,0,0,0-.911.091,1.882,1.882,0,0,0-.643.261,1.08,1.08,0,0,0-.373.417,1.221,1.221,0,0,0-.12.558,1.109,1.109,0,0,0,.344.859,1.352,1.352,0,0,0,.959.322,1.788,1.788,0,0,0,.932-.255,3.9,3.9,0,0,0,.9-.778v-1.475Zm1.262,3.171-.058.139-.17.068-.315.025-.322-.025-.174-.068-.052-.139v-.693a3.408,3.408,0,0,1-1.017.755,2.677,2.677,0,0,1-1.183.27,3.14,3.14,0,0,1-.99-.143,2.183,2.183,0,0,1-.757-.411,1.932,1.932,0,0,1-.488-.664,2.228,2.228,0,0,1-.172-.9,2.053,2.053,0,0,1,.241-1.017,1.99,1.99,0,0,1,.685-.72,3.393,3.393,0,0,1,1.1-.427,6.664,6.664,0,0,1,1.459-.145h.959v-.542a2.728,2.728,0,0,0-.085-.71,1.241,1.241,0,0,0-.276-.515,1.157,1.157,0,0,0-.49-.307,2.258,2.258,0,0,0-.739-.1,3.01,3.01,0,0,0-.847.11,4.355,4.355,0,0,0-.656.249c-.185.089-.342.172-.471.247l-.28.11-.11-.031-.079-.093-.05-.158-.015-.212.027-.305.131-.212a1.772,1.772,0,0,1,.359-.234,3.676,3.676,0,0,1,.585-.245,5.355,5.355,0,0,1,.724-.185,4.282,4.282,0,0,1,.8-.075,4.218,4.218,0,0,1,1.274.17,2.055,2.055,0,0,1,.849.5,1.9,1.9,0,0,1,.471.811,3.955,3.955,0,0,1,.145,1.135v4.681Z" transform="translate(-412.795 -483.351)" fill="#252422"/><path d="M560.882,604.754l-.027.106-.1.075-.193.046-.317.015-.309-.015-.2-.046-.1-.075-.027-.106V594.447l.027-.108.1-.079.2-.044.309-.017.317.017.193.044.1.079.027.108Z" transform="translate(-443.497 -470.901)" fill="#252422"/><path d="M17677.295,1812.606a2.371,2.371,0,0,0,.449-.463,4.1,4.1,0,0,0,.641-1.2l7.516-22.05,3.051-9.7,2.006-5.773,2.02,5.8,3.2,9.691,5.768,16.4a42.74,42.74,0,0,1-24,7.325C17677.727,1812.638,17677.518,1812.611,17677.295,1812.606Zm-23.939-7.729,5.457-15.962,3.037-9.709,15.449-44.727,7.459,21.272-18.986,52.577a10.644,10.644,0,0,0-.6,2.384A42.838,42.838,0,0,1,17653.355,1804.877Zm59.082-9.673,0,0v0Zm-24.283-67.2a42.847,42.847,0,0,1,24.287,67.2Zm-53.162,41.685a42.938,42.938,0,0,1,32.678-41.667l-24.246,67.151A42.694,42.694,0,0,1,17634.992,1769.685Z" transform="translate(-17598.379 -1728)" fill="#6b9638"/></g></svg>