<svg xmlns="http://www.w3.org/2000/svg" width="1454.785" height="669.398" viewBox="0 0 1454.785 669.398"><g transform="translate(-8.451 0.452)" opacity="0.41"><g transform="translate(8.803 0)"><path d="M1053.8,2459.832l-58.074,27.4L884.156,2632.09l-160.512,132.13L593.47,2790.646l-112.552,57.745-131.523,49.916L150.1,2856.221,4.273,2941.371V3100.9l129.191-82.213,131.152,19.575,106.678,49.915,216.3,34.256,186.942-38.171,201.619,10.767,85.149-33.278" transform="translate(392.945 -2459.832)" fill="none" stroke="rgba(214,214,214,0.89)" stroke-width="1"/><path d="M580.869,2471.214H525.735l8.808,132.13-120.388,5.872-56.768,107.661-105.7,28.383-47.96,130.172-84.171-103.746-79.28,122.342L7,2828.454" transform="translate(865.88 -2439.895)" fill="none" stroke="rgba(214,214,214,0.89)" stroke-width="1"/><path d="M65.074,2509.029,7,2470.859" transform="translate(1381.675 -2440.518)" fill="none" stroke="rgba(214,214,214,0.89)" stroke-width="1"/><path d="M339.121,2509.63l-47.3,25.447L118.579,2648.61l-17.617,97.874L7,2678.951" transform="translate(1107.628 -2372.607)" fill="none" stroke="rgba(214,214,214,0.89)" stroke-width="1"/><path d="M1325.015,2583.208l-47.3-63.619-29.365,126.257-144.851-13.7,134.087,113.534-151.7-17.618-138.983,64.6L785.406,2809.3l-164.8-16.639-104.357,22.51-96.892-63.617-31.321,92.98-112.552-6.851-103.309,18.593-27.989,41.988-48.352,41.988L88.2,2823.192,7,2809.3V2751.55" transform="translate(121.734 -2355.161)" fill="none" stroke="rgba(214,214,214,0.89)" stroke-width="1"/><path d="M227.558,2648.406l-86.579,24.81s-79.4,142.25-84.359,129.017S7,2559.086,7,2559.086" transform="translate(1219.191 -2285.98)" fill="none" stroke="rgba(214,214,214,0.89)" stroke-width="1"/><path d="M96.889,2552.67,19.173,2587.9,7,2689.418l89.889,43.005" transform="translate(1349.86 -2297.219)" fill="none" stroke="rgba(214,214,214,0.89)" stroke-width="1"/><path d="M54.379,2674.5,7,2518.876" transform="translate(1392.37 -2356.409)" fill="none" stroke="rgba(214,214,214,0.89)" stroke-width="1"/><path d="M944.048,2635.47l-377.211-16.642-61.658,85.15L402.407,2635.47l-72.423,59.7-90.346-76.342-53.533,76.342-50.894-54.809-110.6,98.852L7,2668.745l147.791,91.021,31.316-55.787,75.363,105.7,131.152-45.022,119.4-60.681L665.69,2804.788l226.088-85.15L774.33,2695.17l169.718-44.043" transform="translate(502.701 -2181.336)" fill="none" stroke="rgba(214,214,214,0.89)" stroke-width="1"/><path d="M83.738,2662.672l-52.27-6.852L7,2751.737" transform="translate(1363.01 -2116.54)" fill="none" stroke="rgba(214,214,214,0.89)" stroke-width="1"/><path d="M277.523,2699.081,163.27,2806.389,67.351,2618.472" transform="translate(1003.166 -2181.958)" fill="none" stroke="rgba(214,214,214,0.89)" stroke-width="1"/><path d="M579.669,2687.866l-367.021-62.992-13.7,129.193-61.658-71.447L69.748,2796.154" transform="translate(694.422 -2170.744)" fill="none" stroke="rgba(214,214,214,0.89)" stroke-width="1"/><path d="M61.226,2639.814,7,2684.836" transform="translate(1385.523 -2144.577)" fill="none" stroke="rgba(214,214,214,0.89)" stroke-width="1"/><path d="M117.362,2806.671,87.02,2948.588l209.449-165.406,19.578-124.3,18.047-99.245L223.4,2591.45" transform="translate(892.474 -2285.009)" fill="none" stroke="rgba(214,214,214,0.89)" stroke-width="1"/><path d="M230.28,2844.563l-85.837-79.282,176.172-146.81" transform="translate(747.945 -2181.958)" fill="none" stroke="rgba(214,214,214,0.89)" stroke-width="1"/><path d="M100.693,2767.137l20.551-126.255" transform="translate(1067.698 -2142.708)" fill="none" stroke="rgba(214,214,214,0.89)" stroke-width="1"/><path d="M1064.111,2763.438,915.245,2769.8l-175.586-29.264-113.24,151.411-129.782-97.971-57.252-73.8-81.2-72.524-128.734-69.98" transform="translate(-229.447 -2253.42)" fill="none" stroke="rgba(214,214,214,0.89)" stroke-width="1"/><path d="M867.292,2814.722l-234.112-60.191-142.5-133.6-148.866-43.26" transform="translate(-341.813 -2253.42)" fill="none" stroke="rgba(214,214,214,0.89)" stroke-width="1"/><path d="M785.645,2892.756,606,2840.589,517.16,2704.448,388.426,2577.211" transform="translate(-388.426 -2254.23)" fill="none" stroke="rgba(214,214,214,0.89)" stroke-width="1"/><path d="M591.147,2723.246l-83.972-31.417-62.346-97.972-18.858,26.72" transform="translate(-297.236 -2225.073)" fill="none" stroke="rgba(214,214,214,0.89)" stroke-width="1"/></g><g transform="translate(219.333 28.383)"><path d="M178.628,2657.266l17.816-96.7L87.02,2591.1Z" transform="translate(819.594 -2311.771)" fill="rgba(234,234,234,0.31)"/><path d="M165.168,2712.963l119.146-63.616L252.51,2794.4Z" transform="translate(516.691 -2156.26)" fill="rgba(234,234,234,0.31)"/><path d="M23.842,2611.086l109.93-140.938,9.792,137.023Z" transform="translate(1046.314 -2470.148)" fill="rgba(234,234,234,0.31)"/><path d="M6.559,2661.058l34.357-59.8,87.793,45.805v21.63Z" transform="translate(1108.725 -2240.495)" fill="rgba(234,234,234,0.31)"/><path d="M263,2640.093l102.449-20.554-52.533,77.32Z" transform="translate(166.362 -2208.472)" fill="rgba(234,234,234,0.31)"/><path d="M453.184,2637.787,340.434,2786.652l132.324-78.885Z" transform="translate(-154.013 -2176.511)" fill="rgba(234,234,234,0.31)"/><path d="M477.226,2703.048l33.8-45.512-86.009-28.119Z" transform="translate(-425.016 -2191.172)" fill="rgba(234,234,234,0.31)"/></g><g transform="translate(0 16.861)"><circle cx="16.462" cy="16.462" r="16.462" transform="translate(1183.448 465.514)" fill="#eaeaea"/><ellipse cx="12.804" cy="12.347" rx="12.804" ry="12.347" transform="translate(505.755 460.027)" fill="#eaeaea"/><ellipse cx="12.347" cy="11.889" rx="12.347" ry="11.889" transform="translate(1386.481 0)" fill="#eaeaea"/><ellipse cx="12.347" cy="12.804" rx="12.347" ry="12.804" transform="translate(902.676 423.444)" fill="#eaeaea"/><ellipse cx="10.518" cy="9.603" rx="10.518" ry="9.603" transform="translate(1369.105 263.395)" fill="#eaeaea"/><ellipse cx="9.603" cy="10.06" rx="9.603" ry="10.06" transform="translate(1224.603 249.676)" fill="#eaeaea"/><ellipse cx="9.603" cy="9.603" rx="9.603" ry="9.603" transform="translate(1208.141 344.791)" fill="#eaeaea"/><circle cx="8.231" cy="8.231" r="8.231" transform="translate(1279.477 489.293)" fill="#eaeaea"/><circle cx="8.231" cy="8.231" r="8.231" transform="translate(1166.986 599.955)" fill="#eaeaea"/><ellipse cx="6.402" cy="6.402" rx="6.402" ry="6.402" transform="translate(1373.677 610.93)" fill="#eaeaea"/><ellipse cx="6.402" cy="7.317" rx="6.402" ry="7.317" transform="translate(834.084 489.293)" fill="#eaeaea"/><ellipse cx="7.317" cy="6.859" rx="7.317" ry="6.859" transform="translate(660.316 553.312)" fill="#eaeaea"/><ellipse cx="6.859" cy="6.859" rx="6.859" ry="6.859" transform="translate(745.371 416.127)" fill="#eaeaea"/><ellipse cx="7.317" cy="6.402" rx="7.317" ry="6.402" transform="translate(893.531 561.543)" fill="#eaeaea"/><ellipse cx="7.317" cy="6.859" rx="7.317" ry="6.859" transform="translate(1011.509 498.438)" fill="#eaeaea"/><ellipse cx="5.945" cy="6.859" rx="5.945" ry="6.859" transform="translate(983.158 638.367)" fill="#eaeaea"/><ellipse cx="7.317" cy="7.317" rx="7.317" ry="7.317" transform="translate(1119.428 279.857)" fill="#eaeaea"/><ellipse cx="6.859" cy="6.859" rx="6.859" ry="6.859" transform="translate(987.731 308.209)" fill="#eaeaea"/><ellipse cx="6.859" cy="7.774" rx="6.859" ry="7.774" transform="translate(875.239 364.912)" fill="#eaeaea"/><ellipse cx="6.859" cy="6.859" rx="6.859" ry="6.859" transform="translate(1072.785 413.384)" fill="#eaeaea"/><ellipse cx="6.859" cy="6.859" rx="6.859" ry="6.859" transform="translate(1394.712 514.9)" fill="#eaeaea"/><ellipse cx="6.859" cy="6.859" rx="6.859" ry="6.859" transform="translate(1282.221 148.16)" fill="#eaeaea"/><ellipse cx="5.945" cy="6.402" rx="5.945" ry="6.402" transform="translate(399.665 460.027)" fill="#eaeaea"/><ellipse cx="6.402" cy="6.402" rx="6.402" ry="6.402" transform="translate(217.667 561.543)" fill="#eaeaea"/><ellipse cx="6.859" cy="5.945" rx="6.859" ry="5.945" transform="translate(131.697 369.485)" fill="#eaeaea"/><ellipse cx="6.859" cy="6.859" rx="6.859" ry="6.859" transform="translate(1400.2 140.843)" fill="#eaeaea"/><ellipse cx="6.859" cy="7.774" rx="6.859" ry="7.774" transform="translate(1361.788 364.912)" fill="#eaeaea"/><ellipse cx="7.317" cy="6.859" rx="7.317" ry="6.859" transform="translate(637.452 435.333)" fill="#eaeaea"/><ellipse cx="7.317" cy="6.402" rx="7.317" ry="6.402" transform="translate(296.319 476.489)" fill="#eaeaea"/><ellipse cx="5.945" cy="6.859" rx="5.945" ry="6.859" transform="translate(399.665 616.417)" fill="#eaeaea"/><ellipse cx="6.859" cy="6.859" rx="6.859" ry="6.859" transform="translate(131.697 429.846)" fill="#eaeaea"/><ellipse cx="6.402" cy="6.859" rx="6.402" ry="6.859" transform="translate(267.053 517.644)" fill="#eaeaea"/><ellipse cx="5.03" cy="5.945" rx="5.03" ry="5.945" transform="translate(545.081 374.057)" fill="#eaeaea"/><ellipse cx="8.231" cy="7.774" rx="8.231" ry="7.774" transform="translate(691.411 492.951)" fill="#eaeaea"/><circle cx="8.231" cy="8.231" r="8.231" transform="translate(765.491 602.699)" fill="#eaeaea"/></g></g></svg>