<svg xmlns="http://www.w3.org/2000/svg" xmlns:xlink="http://www.w3.org/1999/xlink" width="1920.534" height="933.68" viewBox="0 0 1920.534 933.68"><defs><clipPath id="a"><rect width="1469.191" height="933.68" fill="none"/></clipPath><linearGradient id="b" x1="-3.26" y1="5.342" x2="-2.532" y2="5.342" gradientUnits="objectBoundingBox"><stop offset="0" stop-color="#e3fcc6"/><stop offset="1" stop-color="#aad479"/></linearGradient><clipPath id="c"><path d="M754.2,168.99,902.158,544.631,748.48,640.481,591.94,238.852Z" transform="translate(-591.94 -168.99)" fill="none"/></clipPath><linearGradient id="d" x1="-2.484" y1="6.955" x2="-2.223" y2="5.655" gradientUnits="objectBoundingBox"><stop offset="0" stop-color="#9fcb6b"/><stop offset="1" stop-color="#547a27"/></linearGradient><linearGradient id="e" x1="-3.195" y1="30.087" x2="-2.158" y2="30.087" gradientUnits="objectBoundingBox"><stop offset="0" stop-color="#b4d68b"/><stop offset="1" stop-color="#6b9638"/></linearGradient><linearGradient id="f" x1="-0.741" y1="4.706" x2="0.039" y2="4.706" gradientUnits="objectBoundingBox"><stop offset="0" stop-color="#e6ffc9"/><stop offset="1" stop-color="#b6e282"/></linearGradient><clipPath id="g"><path d="M745.625,365.383l-108.939,388.7-180.515-16L573.96,323.486Z" transform="translate(-456.171 -323.486)" fill="none"/></clipPath><linearGradient id="h" x1="0.447" y1="5.177" x2="0.78" y2="4.063" gradientUnits="objectBoundingBox"><stop offset="0" stop-color="#8fbc59"/><stop offset="1" stop-color="#578126"/></linearGradient><linearGradient id="i" x1="-0.81" y1="24.119" x2="0.232" y2="24.119" gradientUnits="objectBoundingBox"><stop offset="0" stop-color="#d7f6b2"/><stop offset="1" stop-color="#6b9638"/></linearGradient><linearGradient id="j" x1="0.722" y1="-0.667" x2="0.722" y2="0.597" gradientUnits="objectBoundingBox"><stop offset="0" stop-color="#88b552"/><stop offset="1" stop-color="#6b9638"/></linearGradient><clipPath id="k"><path d="M782.828,325.9,751.375,496.062,618.068,475.118l31.45-170.164Z" transform="translate(-618.068 -304.954)" fill="none"/></clipPath><clipPath id="l"><path d="M516.246,153.947,498.385,253.7l-80.866-12.671,17.86-99.756Z" transform="translate(-417.519 -141.273)" fill="none"/></clipPath><linearGradient id="m" x1="8.043" y1="41.778" x2="8.276" y2="40.713" gradientUnits="objectBoundingBox"><stop offset="0" stop-color="#6b9638"/><stop offset="1" stop-color="#89b753"/></linearGradient><clipPath id="n"><path d="M643.143,355.251,781.362,731.428,626.646,823.047,480.5,420.876Z" transform="translate(-480.503 -355.251)" fill="none"/></clipPath><clipPath id="o"><path d="M843.4,515.2,727.664,665.823,589.228,570.977l115.721-150.6Z" transform="translate(-589.228 -420.374)" fill="none"/></clipPath></defs><g transform="translate(0.352 -3887.32)"><g transform="translate(-8.803 3937.385)" opacity="0.41"><g transform="translate(8.803 0)"><path d="M1389.933,2459.832l-76.673,36.182-147.307,191.245L954.035,2861.7,782.17,2896.594l-148.6,76.239-173.646,65.9-263.119-55.565L4.273,3095.592v210.626L174.84,3197.675,348,3223.52l140.844,65.9,285.575,45.227,246.813-50.4,266.191,14.214,112.42-43.935" transform="translate(520.161 -2459.832)" fill="none" stroke="rgba(255,255,255,0.23)" stroke-width="1"/><path d="M764.661,2471.215H691.869L703.5,2645.661l-158.944,7.753-74.949,142.141-139.552,37.473-63.319,171.862L155.606,2867.918,50.935,3029.442,7,2942.866" transform="translate(1145.434 -2429.865)" fill="none" stroke="rgba(255,255,255,0.23)" stroke-width="1"/><path d="M83.673,2521.253,7,2470.859" transform="translate(1826.422 -2430.801)" fill="none" stroke="rgba(255,255,255,0.23)" stroke-width="1"/><path d="M445.488,2509.63l-62.454,33.6-228.72,149.895-23.259,129.219L7,2733.179" transform="translate(1464.606 -2328.723)" fill="none" stroke="rgba(255,255,255,0.23)" stroke-width="1"/><path d="M1747.132,2603.583l-62.454-83.993-38.769,166.692-191.242-18.089,177.03,149.9-200.289-23.26-183.494,85.284L1034.7,2902.08l-217.58-21.968-137.779,29.719L551.423,2825.84,510.071,2948.6l-148.6-9.045L225.077,2964.1l-36.953,55.435-63.837,55.435-10.076-154.545L7,2902.08v-76.24" transform="translate(162.963 -2302.5)" fill="none" stroke="rgba(255,255,255,0.23)" stroke-width="1"/><path d="M298.195,2677.012l-114.307,32.755S79.061,2897.576,72.512,2880.1,7,2559.086,7,2559.086" transform="translate(1611.9 -2198.513)" fill="none" stroke="rgba(255,255,255,0.23)" stroke-width="1"/><path d="M125.678,2552.669,23.071,2599.185,7,2733.214l118.678,56.779" transform="translate(1784.417 -2215.407)" fill="none" stroke="rgba(255,255,255,0.23)" stroke-width="1"/><path d="M69.553,2724.335,7,2518.876" transform="translate(1840.542 -2304.376)" fill="none" stroke="rgba(255,255,255,0.23)" stroke-width="1"/><path d="M1244.153,2640.8l-498.019-21.972L664.729,2731.25,529.043,2640.8l-95.618,78.819L314.145,2618.828l-70.677,100.791-67.193-72.362L30.259,2777.768,7,2684.731,202.123,2804.9l41.345-73.654,99.5,139.556,173.156-59.441,157.646-80.115,202.879,133.095,298.5-112.421-155.063-32.3,224.073-58.148" transform="translate(665.942 -2041.222)" fill="none" stroke="rgba(255,255,255,0.23)" stroke-width="1"/><path d="M108.315,2664.866l-69.01-9.046L7,2782.456" transform="translate(1801.78 -1943.827)" fill="none" stroke="rgba(255,255,255,0.23)" stroke-width="1"/><path d="M344.834,2724.9,193.989,2866.573l-126.639-248.1" transform="translate(1346.017 -2042.158)" fill="none" stroke="rgba(255,255,255,0.23)" stroke-width="1"/><path d="M742.98,2708.041l-484.566-83.166-18.093,170.569-81.405-94.33L69.748,2851.009" transform="translate(939.161 -2025.301)" fill="none" stroke="rgba(255,255,255,0.23)" stroke-width="1"/><path d="M78.593,2639.815,7,2699.255" transform="translate(1831.502 -1985.969)" fill="none" stroke="rgba(255,255,255,0.23)" stroke-width="1"/><path d="M127.08,2885.786,87.02,3073.156l276.529-218.38,25.849-164.1,23.826-131.03-146.151,42" transform="translate(1206.173 -2197.053)" fill="none" stroke="rgba(255,255,255,0.23)" stroke-width="1"/><path d="M257.771,2916.974,144.443,2812.3l232.594-193.828" transform="translate(1033.747 -2042.158)" fill="none" stroke="rgba(255,255,255,0.23)" stroke-width="1"/><path d="M100.693,2807.573l27.133-166.691" transform="translate(1441.896 -1983.159)" fill="none" stroke="rgba(255,255,255,0.23)" stroke-width="1"/><path d="M1331.426,2822.933l-196.543,8.4L903.063,2792.7,753.556,2992.6,582.209,2863.249l-75.587-97.431L399.41,2670.066l-169.963-92.392" transform="translate(-229.447 -2149.573)" fill="none" stroke="rgba(255,255,255,0.23)" stroke-width="1"/><path d="M1035.586,2890.641,726.5,2811.173,538.355,2634.789l-196.542-57.115" transform="translate(-341.813 -2149.573)" fill="none" stroke="rgba(255,255,255,0.23)" stroke-width="1"/><path d="M912.861,2993.815l-237.185-68.875L558.389,2745.2,388.426,2577.212" transform="translate(-388.426 -2150.791)" fill="none" stroke="rgba(255,255,255,0.23)" stroke-width="1"/><path d="M644.048,2764.685l-110.866-41.478-82.314-129.349-24.9,35.277" transform="translate(-256.007 -2106.963)" fill="none" stroke="rgba(255,255,255,0.23)" stroke-width="1"/></g><g transform="translate(286.759 37.473)"><path d="M207.968,2688.236l23.521-127.672L87.02,2600.882Z" transform="translate(1109.952 -2232.091)" fill="rgba(255,255,255,0.07)"/><path d="M165.168,2733.338l157.3-83.99-41.991,191.5Z" transform="translate(735.068 -1998.341)" fill="rgba(255,255,255,0.07)"/><path d="M23.842,2656.224l145.136-186.076,12.928,180.906Z" transform="translate(1389.05 -2470.148)" fill="rgba(255,255,255,0.07)"/><path d="M6.559,2680.211l45.361-78.954,115.91,60.476v28.557Z" transform="translate(1465.913 -2124.955)" fill="rgba(255,255,255,0.07)"/><path d="M263,2646.676l135.26-27.136L328.9,2721.623Z" transform="translate(303.872 -2076.821)" fill="rgba(255,255,255,0.07)"/><path d="M489.295,2637.787,340.434,2834.329l174.7-104.15Z" transform="translate(-94.308 -2028.78)" fill="rgba(255,255,255,0.07)"/><path d="M500.906,2726.642l35.021-52.26-110.912-44.966Z" transform="translate(-425.016 -2050.816)" fill="rgba(255,255,255,0.07)"/></g><g transform="translate(171.056 22.261)"><circle cx="21.734" cy="21.734" r="21.734" transform="translate(1388.591 614.603)" fill="#b0db7c"/><ellipse cx="16.905" cy="16.301" rx="16.905" ry="16.301" transform="translate(493.855 607.358)" fill="#87b84d"/><ellipse cx="16.301" cy="15.697" rx="16.301" ry="15.697" transform="translate(1656.65 0)" fill="#b0db7c"/><ellipse cx="16.301" cy="16.905" rx="16.301" ry="16.905" transform="translate(1017.898 559.059)" fill="#b0db7c"/><ellipse cx="13.886" cy="12.678" rx="13.886" ry="12.678" transform="translate(1633.708 347.752)" fill="#b0db7c"/><ellipse cx="12.678" cy="13.282" rx="12.678" ry="13.282" transform="translate(1442.927 329.64)" fill="#b0db7c"/><ellipse cx="12.678" cy="12.678" rx="12.678" ry="12.678" transform="translate(1421.193 455.217)" fill="#b0db7c"/><circle cx="10.867" cy="10.867" r="10.867" transform="translate(1515.376 645.997)" fill="#b0db7c"/><circle cx="10.867" cy="10.867" r="10.867" transform="translate(1366.857 792.101)" fill="#b0db7c"/><ellipse cx="8.452" cy="8.452" rx="8.452" ry="8.452" transform="translate(1639.745 806.591)" fill="#b0db7c"/><ellipse cx="8.452" cy="9.66" rx="8.452" ry="9.66" transform="translate(927.337 645.997)" fill="#b0db7c"/><ellipse cx="9.66" cy="9.056" rx="9.66" ry="9.056" transform="translate(697.918 730.52)" fill="#91bc5d"/><ellipse cx="9.056" cy="9.056" rx="9.056" ry="9.056" transform="translate(810.213 549.399)" fill="#97c462"/><ellipse cx="9.66" cy="8.452" rx="9.66" ry="8.452" transform="translate(1005.823 741.387)" fill="#b0db7c"/><ellipse cx="9.66" cy="9.056" rx="9.66" ry="9.056" transform="translate(1161.587 658.072)" fill="#b0db7c"/><ellipse cx="7.849" cy="9.056" rx="7.849" ry="9.056" transform="translate(1124.155 842.815)" fill="#b0db7c"/><ellipse cx="9.66" cy="9.66" rx="9.66" ry="9.66" transform="translate(1304.068 369.486)" fill="#b0db7c"/><ellipse cx="9.056" cy="9.056" rx="9.056" ry="9.056" transform="translate(1130.193 406.918)" fill="#b0db7c"/><ellipse cx="9.056" cy="10.264" rx="9.056" ry="10.264" transform="translate(981.674 481.781)" fill="#b0db7c"/><ellipse cx="9.056" cy="9.056" rx="9.056" ry="9.056" transform="translate(1242.487 545.777)" fill="#b0db7c"/><ellipse cx="9.056" cy="9.056" rx="9.056" ry="9.056" transform="translate(1667.517 679.806)" fill="#b0db7c"/><ellipse cx="9.056" cy="9.056" rx="9.056" ry="9.056" transform="translate(1518.998 195.61)" fill="#b0db7c"/><ellipse cx="7.849" cy="8.452" rx="7.849" ry="8.452" transform="translate(353.789 607.358)" fill="#84ab56"/><ellipse cx="8.452" cy="8.452" rx="8.452" ry="8.452" transform="translate(113.502 741.387)" fill="#84ab56"/><ellipse cx="9.056" cy="7.849" rx="9.056" ry="7.849" transform="translate(0 487.818)" fill="#84ab56"/><ellipse cx="9.056" cy="9.056" rx="9.056" ry="9.056" transform="translate(1674.762 185.951)" fill="#b0db7c"/><ellipse cx="9.056" cy="10.264" rx="9.056" ry="10.264" transform="translate(1624.048 481.781)" fill="#b0db7c"/><ellipse cx="9.66" cy="9.056" rx="9.66" ry="9.056" transform="translate(667.731 574.756)" fill="#91bc5d"/><ellipse cx="9.66" cy="8.452" rx="9.66" ry="8.452" transform="translate(217.345 629.092)" fill="#84ab56"/><ellipse cx="7.849" cy="9.056" rx="7.849" ry="9.056" transform="translate(353.789 813.835)" fill="#84ab56"/><ellipse cx="9.056" cy="9.056" rx="9.056" ry="9.056" transform="translate(0 567.511)" fill="#84ab56"/><ellipse cx="8.452" cy="9.056" rx="8.452" ry="9.056" transform="translate(178.706 683.429)" fill="#84ab56"/><ellipse cx="6.641" cy="7.849" rx="6.641" ry="7.849" transform="translate(545.777 493.856)" fill="#84ab56"/><ellipse cx="10.867" cy="10.264" rx="10.867" ry="10.264" transform="translate(738.972 650.827)" fill="#91bc5d"/><circle cx="10.867" cy="10.867" r="10.867" transform="translate(836.777 795.723)" fill="#93bf5d"/></g></g><g transform="translate(373.458 3826.875)"><g transform="translate(77.35 60.445)" clip-path="url(#a)"><g transform="translate(534.09 28.887)"><g transform="translate(618.427 238.439)" opacity="0.1"><g transform="translate(117.487)"><path d="M754.2,168.99,902.158,544.631,748.48,640.481,591.94,238.852Z" transform="translate(-591.94 -168.99)" fill="url(#b)"/></g><g transform="translate(0 69.862)"><path d="M818.363,598.985l-126.082-4.659L544.336,218.689l117.487-21.332Z" transform="translate(-544.336 -197.356)" fill="url(#d)"/></g><path d="M661.823,238.852,544.336,260.184l153.572-75.223L824.087,168.99Z" transform="translate(-544.336 -168.99)" fill="url(#e)"/></g><g transform="translate(303.066 565.261)" opacity="0.1"><g transform="translate(97.77 53.677)"><path d="M745.625,365.383l-108.939,388.7-180.515-16L573.96,323.486Z" transform="translate(-456.171 -323.486)" fill="url(#f)"/></g><path d="M514.326,769.964l-97.77-79.578L525.5,301.691l106.615,53.677Z" transform="translate(-416.556 -301.691)" fill="url(#h)"/><g transform="translate(108.943)"><path d="M567.314,355.369,460.7,301.691l167.964,32.392,110.317,63.182Z" transform="translate(-460.698 -301.691)" fill="url(#i)"/></g></g><g transform="translate(715.795 238.554)" opacity="0.69"><path d="M816.212,189.21,784.068,456.1,597.618,329.079Z" transform="translate(-597.618 -170.821)" fill="#83b24c"/><path d="M816.212,201.007,676.12,182.619l-78.5,158.258Z" transform="translate(-597.618 -182.619)" fill="url(#j)"/><path d="M696.451,189.21l72.489,99.052L664.307,456.1Z" transform="translate(-477.857 -170.821)" fill="#b3d888"/></g><g transform="translate(715.794 536.429)" opacity="0.58"><g transform="translate(84.601 36.868)"><path d="M782.828,325.9,751.375,496.062,618.068,475.118l31.45-170.164Z" transform="translate(-618.068 -304.954)" fill="#aed186"/></g><path d="M668.389,497.016l-84.6-36.875,31.45-170.156,84.6,36.868Z" transform="translate(-583.788 -289.984)" fill="#7ea450"/><g transform="translate(31.45)"><path d="M681.132,326.852l-84.6-36.868,133.313,20.944,84.6,36.868Z" transform="translate(-596.531 -289.984)" fill="#89af5b"/></g></g><g transform="translate(588.271 18.853)"><g transform="translate(51.487 21.874)"><path d="M516.246,153.947,498.385,253.7l-80.866-12.671,17.86-99.756Z" transform="translate(-417.519 -141.273)" fill="#a2cb71"/></g><path d="M454.82,257.419l-51.487-21.88,17.86-99.75,51.487,21.874Z" transform="translate(-403.333 -135.789)" fill="url(#m)"/><g transform="translate(17.86)"><path d="M459.741,157.663l-51.487-21.874,80.87,12.669,51.483,21.878Z" transform="translate(-408.254 -135.789)" fill="#cde6ae"/></g></g><g transform="translate(384.031 536.429)" opacity="0.53"><g transform="translate(117.091)"><path d="M643.143,355.251,781.362,731.428,626.646,823.047,480.5,420.876Z" transform="translate(-480.503 -355.251)" fill="#badf91" opacity="0.57"/></g><g transform="translate(0 65.625)"><path d="M712.6,774.912l-125.022-7.5L449.361,391.227l117.091-18.486Z" transform="translate(-449.361 -372.741)" fill="#6b9638"/></g><path d="M566.452,420.876,449.361,439.362,603.5,368.215l125.595-12.964Z" transform="translate(-449.361 -355.251)" fill="#8fb85f"/></g><g transform="translate(648.816 10.405)"><path d="M673.262,162.624l45.168,78.018-193.3-25.083Z" transform="translate(-525.126 -35.954)" fill="#87ac5a"/><path d="M566.781,253.6l45.168,78.018,18.49-204.688Z" transform="translate(-418.646 -126.93)" fill="#a2cb71"/><path d="M525.126,306.535l63.661-126.666L736.919,126.93,673.262,253.6Z" transform="translate(-525.126 -126.93)" fill="#8db75a"/></g><g transform="translate(199.248 578.217)" opacity="0.66"><path d="M484.775,338.54,504.1,399.221,374.49,352.66Z" transform="translate(-374.49 -260.744)" fill="rgba(107,150,56,0.74)"/><path d="M419.176,384.748,438.5,445.429l43.86-138.477Z" transform="translate(-308.891 -306.952)" fill="#a2cb71"/><path d="M374.49,398.868l63.183-77.788,110.286-14.128-63.184,77.8Z" transform="translate(-374.49 -306.952)" fill="rgba(107,150,56,0.46)"/></g><g transform="translate(0 767.762)" opacity="0.26"><path d="M358.4,596.59l-6.723-181.684,124.245,45.18Z" transform="translate(-208.731 -338.579)" fill="#b5d88b"/><path d="M436.7,414.905,293.757,478.893l149.669,117.7Z" transform="translate(-293.757 -338.579)" fill="#5a822a"/><path d="M436.7,460.24,293.757,524.228,414.705,383.914Z" transform="translate(-293.757 -383.914)" fill="rgba(107,150,56,0.85)"/><path d="M364.761,460.24l124.245,45.18L342.764,383.914Z" transform="translate(-221.815 -383.914)" fill="#cce8ab"/></g><g transform="translate(652.56 774.087)" opacity="0.5"><g transform="translate(76.659 83.469)"><path d="M843.4,515.2,727.664,665.823,589.228,570.977l115.721-150.6Z" transform="translate(-589.228 -420.374)" fill="#aed186"/></g><path d="M634.826,620.555l-76.66-83.474L673.9,386.482l76.648,83.469Z" transform="translate(-558.166 -386.482)" fill="#678f37"/><g transform="translate(115.733)"><path d="M681.707,469.952,605.06,386.482l138.427,94.831L820.16,564.78Z" transform="translate(-605.06 -386.482)" fill="#89af5b"/></g></g></g></g></g></g></svg>