<svg xmlns="http://www.w3.org/2000/svg" xmlns:xlink="http://www.w3.org/1999/xlink" width="43" height="51" viewBox="0 0 43 51"><defs><linearGradient id="a" x1="0.5" x2="0.5" y2="1" gradientUnits="objectBoundingBox"><stop offset="0" stop-color="#8bb45b"/><stop offset="1" stop-color="#6b9638"/></linearGradient></defs><g transform="translate(-974.16 -7486.383)"><path d="M16.885,42.346a21.5,21.5,0,1,1,9.23,0L21.5,51Z" transform="translate(974.16 7486.383)" fill="url(#a)"/><path d="M15.825,31.255a.92.92,0,0,0,.168-.171,1.478,1.478,0,0,0,.238-.442L19.044,22.5l1.141-3.585.75-2.133.757,2.144,1.2,3.58,2.156,6.057a16.123,16.123,0,0,1-8.976,2.706C15.986,31.266,15.908,31.256,15.825,31.255ZM6.87,28.4l2.041-5.9,1.136-3.586L15.826,2.394l2.79,7.858-7.1,19.422a3.9,3.9,0,0,0-.223.881A16.082,16.082,0,0,1,6.87,28.4Zm22.1-3.573h0ZM19.888,0a15.906,15.906,0,0,1,12.25,15.4,15.653,15.653,0,0,1-3.165,9.426ZM0,15.4A15.9,15.9,0,0,1,12.223.007L3.153,24.813A15.646,15.646,0,0,1,0,15.4Z" transform="translate(979.48 7492.166)" fill="rgba(255,255,255,0.7)"/></g></svg>