<svg xmlns="http://www.w3.org/2000/svg" width="50.283" height="48.607" viewBox="0 0 50.283 48.607"><g transform="translate(0 -8.533)"><g transform="translate(0 8.533)"><path d="M46.93,8.533H3.353A3.357,3.357,0,0,0,0,11.886V39.541a.838.838,0,0,0,.838.838H49.445a.838.838,0,0,0,.838-.838V11.886A3.357,3.357,0,0,0,46.93,8.533ZM48.607,38.7H1.676V11.886a1.679,1.679,0,0,1,1.677-1.677H46.93a1.679,1.679,0,0,1,1.677,1.677Z" transform="translate(0 -8.533)" fill="#6b9638"/></g><g transform="translate(0 38.703)"><path d="M49.445,315.733H.838a.838.838,0,0,0-.838.838v4.189a3.357,3.357,0,0,0,3.353,3.353H46.93a3.357,3.357,0,0,0,3.353-3.353v-4.189A.838.838,0,0,0,49.445,315.733Zm-.838,5.027a1.679,1.679,0,0,1-1.677,1.677H3.353a1.679,1.679,0,0,1-1.677-1.677v-3.351H48.607v3.351Z" transform="translate(0 -315.733)" fill="#6b9638"/></g><g transform="translate(21.789 42.055)"><path d="M227.733,349.867H222.7a.838.838,0,0,0,0,1.676h5.028a.838.838,0,1,0,0-1.676Z" transform="translate(-221.867 -349.867)" fill="#6b9638"/></g><g transform="translate(3.352 11.885)"><path d="M76.874,42.667h-41.9a.838.838,0,0,0-.838.838V70.323a.838.838,0,0,0,.838.838h41.9a.838.838,0,0,0,.838-.838V43.505A.838.838,0,0,0,76.874,42.667Zm-.838,26.818H35.81V44.343H76.036V69.485Z" transform="translate(-34.134 -42.667)" fill="#6b9638"/></g><g transform="translate(11.733 52.112)"><path d="M143.77,452.267H121.981a2.514,2.514,0,0,0,0,5.028H143.77a2.514,2.514,0,1,0,0-5.028Zm0,3.352H121.981a.838.838,0,0,1,0-1.676H143.77a.838.838,0,1,1,0,1.676Z" transform="translate(-119.467 -452.267)" fill="#6b9638"/></g><g transform="translate(15.085 45.407)"><path d="M172.876,390.705c-2.781,0-4.19-1.974-4.19-5.866a.838.838,0,0,0-.838-.838h-8.38a.838.838,0,0,0-.838.838c0,3.893-1.41,5.866-4.19,5.866a.838.838,0,1,0,0,1.676h18.437a.838.838,0,1,0,0-1.676Zm-14.355,0a8.029,8.029,0,0,0,1.762-5.028h6.751a8.019,8.019,0,0,0,1.762,5.028Z" transform="translate(-153.601 -384.001)" fill="#6b9638"/></g><g transform="translate(29.337 26.132)"><path d="M309.431,194.825l-2.023-2.023,1.125-1.125a.838.838,0,0,0-.351-1.4l-8.38-2.514a.838.838,0,0,0-1.043,1.043l2.514,8.38a.838.838,0,0,0,1.4.352l1.185-1.186,2.023,2.024a.838.838,0,0,0,1.185,0l2.37-2.371A.837.837,0,0,0,309.431,194.825Zm-2.963,1.778-1.842-1.843a1.1,1.1,0,0,0-1.547,0l-.605.605-1.664-5.545,5.545,1.664-.649.649a.95.95,0,0,0,0,1.342l1.944,1.944Z" transform="translate(-298.723 -187.731)" fill="#6b9638"/></g><g transform="translate(10.895 15.237)"><path d="M135.237,76.8H111.772a.838.838,0,0,0-.838.838v4.19a.838.838,0,0,0,.838.838h23.465a.838.838,0,0,0,.838-.838v-4.19A.838.838,0,0,0,135.237,76.8Zm-.838,4.19H112.61V78.476H134.4Z" transform="translate(-110.934 -76.8)" fill="#6b9638"/></g><g transform="translate(14.247 24.456)"><path d="M152.609,170.667h-6.7a.838.838,0,0,0-.838.838v3.352a.838.838,0,0,0,.838.838h6.7a.838.838,0,0,0,.838-.838v-3.352A.838.838,0,0,0,152.609,170.667Zm-.838,3.352h-5.028v-1.676h5.028Z" transform="translate(-145.067 -170.667)" fill="#6b9638"/></g><g transform="translate(10.895 15.237)"><path d="M135.237,76.8H111.772a.838.838,0,0,0-.838.838V93.561a.838.838,0,0,0,.838.838h19.951a.839.839,0,0,0,.8-1.079l-1.061-3.537L135,90.842a.838.838,0,0,0,1.079-.8v-12.4A.838.838,0,0,0,135.237,76.8ZM134.4,88.913l-3.945-1.183a.839.839,0,0,0-1.043,1.044l1.185,3.949H112.61V78.476H134.4Z" transform="translate(-110.934 -76.8)" fill="#6b9638"/></g></g></svg>