<svg xmlns="http://www.w3.org/2000/svg" width="41.33" height="41.39" viewBox="0 0 41.33 41.39"><g transform="translate(-0.344 0)"><g transform="translate(0.344 0)"><path d="M33.026,50.652A4.071,4.071,0,0,0,30.073,49.3a4.21,4.21,0,0,0-2.988,1.345l-2.76,2.752c-.227-.122-.454-.236-.673-.349-.314-.157-.611-.306-.865-.463A30,30,0,0,1,15.6,46.031a17.7,17.7,0,0,1-2.359-3.721c.716-.655,1.38-1.337,2.027-1.992.245-.245.489-.5.734-.743a4.008,4.008,0,0,0,0-6.045l-2.385-2.385c-.271-.271-.55-.55-.812-.83-.524-.542-1.074-1.1-1.642-1.625a4.135,4.135,0,0,0-2.926-1.284,4.279,4.279,0,0,0-2.97,1.284l-.017.017-2.97,3a6.391,6.391,0,0,0-1.9,4.062A15.314,15.314,0,0,0,1.5,42.248,37.613,37.613,0,0,0,8.181,53.395,41.109,41.109,0,0,0,21.87,64.113a21.328,21.328,0,0,0,7.687,2.271c.183.009.376.017.55.017a6.583,6.583,0,0,0,5.04-2.166c.009-.017.026-.026.035-.044a19.859,19.859,0,0,1,1.529-1.581c.376-.358.76-.734,1.136-1.127a4.358,4.358,0,0,0,1.319-3.023,4.2,4.2,0,0,0-1.345-3Zm3.127,9.2c-.009,0-.009.009,0,0-.341.367-.69.7-1.066,1.066A22.97,22.97,0,0,0,33.4,62.663a4.211,4.211,0,0,1-3.285,1.389c-.131,0-.271,0-.4-.009A18.947,18.947,0,0,1,22.9,62,38.8,38.8,0,0,1,10.007,51.9a35.465,35.465,0,0,1-6.29-10.474,12.473,12.473,0,0,1-.978-5.469,4.01,4.01,0,0,1,1.206-2.595l2.979-2.979a1.986,1.986,0,0,1,1.328-.62,1.869,1.869,0,0,1,1.275.611l.026.026c.533.5,1.04,1.013,1.572,1.564.271.28.55.559.83.847L14.34,35.2a1.667,1.667,0,0,1,0,2.708c-.253.253-.5.507-.751.751-.734.751-1.433,1.45-2.193,2.132-.017.017-.035.026-.044.044a1.782,1.782,0,0,0-.454,1.983l.026.079a19.146,19.146,0,0,0,2.822,4.6l.009.009a32.063,32.063,0,0,0,7.757,7.058,11.927,11.927,0,0,0,1.074.585c.314.157.611.306.865.463.035.017.07.044.1.061a1.894,1.894,0,0,0,.865.218,1.868,1.868,0,0,0,1.328-.6L28.737,52.3a1.976,1.976,0,0,1,1.319-.655,1.779,1.779,0,0,1,1.258.638l.017.017,4.813,4.813A1.727,1.727,0,0,1,36.153,59.85Z" transform="translate(-0.344 -25.012)" fill="#fff"/><path d="M245.914,88.265a11.243,11.243,0,0,1,9.155,9.155,1.172,1.172,0,0,0,1.162.978,1.56,1.56,0,0,0,.2-.017,1.18,1.18,0,0,0,.97-1.363,13.594,13.594,0,0,0-11.077-11.077,1.185,1.185,0,0,0-1.363.961A1.167,1.167,0,0,0,245.914,88.265Z" transform="translate(-223.576 -78.419)" fill="#fff"/><path d="M268.385,18.258A22.385,22.385,0,0,0,250.145.018a1.178,1.178,0,1,0-.384,2.324,19.994,19.994,0,0,1,16.3,16.3,1.172,1.172,0,0,0,1.162.978,1.56,1.56,0,0,0,.2-.017A1.157,1.157,0,0,0,268.385,18.258Z" transform="translate(-227.073 0)" fill="#fff"/></g></g></svg>